<?xml version="1.0" encoding="UTF-8"?>
<svg width="225px" height="61px" viewBox="0 0 225 61" version="1.1" xmlns="http://www.w3.org/2000/svg" xmlns:xlink="http://www.w3.org/1999/xlink">
    <!-- Generator: Sketch 62 (91390) - https://sketch.com -->
    <title>Combined Shape</title>
    <desc>Created with Sketch.</desc>
    <g id="Combined-Shape" stroke="none" stroke-width="1" fill="none" fill-rule="evenodd">
        <path d="M215.080731,21.1963648 C212.664139,21.1963648 210.698149,19.2303746 210.698149,16.8137823 C210.698149,14.3981936 212.664139,12.4322034 215.080731,12.4322034 C217.498327,12.4322034 219.463314,14.3981936 219.463314,16.8137823 L225,16.8137823 C225,11.345339 220.548171,6.89652095 215.080731,6.89652095 C209.612288,6.89652095 205.16347,11.345339 205.16347,16.8137823 C205.16347,22.2842328 209.612288,26.7310437 215.080731,26.7310437 C217.497323,26.7310437 219.463314,28.7000446 219.463314,31.1146297 C219.463314,33.5302185 217.497323,35.4952051 215.080731,35.4952051 C212.664139,35.4952051 210.698149,33.5292149 210.698149,31.1146297 L205.16347,31.1146297 C205.16347,36.5820695 209.612288,41.0308875 215.080731,41.0308875 C220.549175,41.0308875 225,36.5820695 225,31.1146297 C225.001003,25.6461864 220.549175,21.1963648 215.080731,21.1963648 Z" id="Path" fill="#000000" fill-rule="nonzero"></path>
        <path d="M169.415365,6.82928188 L163.879683,6.82928188 L163.879683,40.9957627 L169.415365,40.9957627 L169.415365,23.9672167 L169.451494,23.9672167 C169.451494,17.6076048 174.626895,12.4352141 180.986507,12.4352141 L180.986507,6.89852809 C176.525646,6.89852809 172.459188,8.61864405 169.417373,11.4306423 L169.417373,6.82928188 L169.415365,6.82928188 L169.415365,6.82928188 Z" id="Path" fill="#000000" fill-rule="nonzero"></path>
        <path d="M158.714317,6.79315342 L158.723349,40.9927519 L153.186663,40.9937555 L153.186663,36.4676627 C150.145852,39.2595896 146.09545,40.964652 141.652654,40.964652 C132.241191,40.964652 124.582961,33.3094335 124.582961,23.8959634 C124.582961,14.4845004 132.241191,6.82727474 141.652654,6.82727474 C146.091436,6.82727474 150.140834,8.53233719 153.179638,11.3192462 L153.179638,11.3192462 L153.179638,6.79616413 L158.714317,6.79315342 Z M141.652654,12.3659679 C135.293042,12.3659679 130.119647,17.5403657 130.119647,23.8989741 C130.119647,30.2575825 135.292038,35.4339875 141.652654,35.4339875 C147.912912,35.4339875 153.025089,30.419157 153.182649,24.2010481 L153.182649,24.2010481 L153.182649,23.5989072 C153.022078,17.3777877 147.911909,12.3659679 141.652654,12.3659679 Z" fill="#111111" fill-rule="nonzero"></path>
        <path d="M75.2565788,35.4811552 C68.891949,35.4811552 63.7125334,30.302743 63.7125334,23.9361061 C63.7125334,17.5724799 68.891949,12.3950713 75.2565788,12.3950713 C79.1614629,12.3950713 82.7753121,14.346008 84.9179303,17.618644 L89.546387,14.5828501 C86.3751114,9.74565119 81.0331176,6.85838536 75.2555753,6.85838536 C65.8370873,6.85838536 58.1758474,14.5186217 58.1758474,23.9361061 C58.1758474,33.3545941 65.8360838,41.0168376 75.2555753,41.0168376 C78.2351694,41.0168376 81.1696029,40.2380686 83.7407447,38.7628233 C86.2305976,37.3337421 88.340098,35.2824487 89.8394289,32.8337421 L85.1156332,29.9454727 C82.9991078,33.4107939 79.3130017,35.4811552 75.2565788,35.4811552 Z" id="Path" fill="#000000" fill-rule="nonzero"></path>
        <rect id="Rectangle" fill="#000000" fill-rule="nonzero" x="47.4617528" y="6.86641391" width="5.53568242" height="34.1654772"></rect>
        <path d="M113.867863,28.6117306 L113.863849,28.6167484 C113.863849,32.38314 110.799955,35.4470338 107.033564,35.4470338 C103.268176,35.4470338 100.205285,32.38314 100.205285,28.6167484 L100.205285,6.8443354 L94.6696029,6.8443354 L94.6696029,28.6167484 C94.6696029,35.4359946 100.216325,40.9827163 107.033564,40.9827163 C109.555531,40.9827163 111.904884,40.2220115 113.863849,38.91938 L113.863849,47.802966 C113.863849,51.5693576 110.799955,54.6332515 107.033564,54.6332515 C103.268176,54.6332515 100.205285,51.5683541 100.205285,47.802966 L94.6696029,47.802966 C94.6696029,54.6202051 100.216325,60.1669268 107.033564,60.1669268 C113.851806,60.1669268 119.398528,54.6202051 119.398528,47.802966 L119.403546,6.84333184 L113.86686,6.84333184 L113.86686,28.6117306 L113.867863,28.6117306 Z" id="Path" fill="#000000" fill-rule="nonzero"></path>
        <path d="M6.84935325,47.8421052 L6.83028545,47.8621766 C6.83028545,51.6275646 3.76538804,54.6914584 0,54.6914584 L0,60.2261373 C6.81121765,60.2261373 12.3549286,54.6894513 12.3659679,47.8822479 L12.3850357,47.8631801 L12.3850357,6.882471 L6.85035681,6.882471 L6.84935325,47.8421052 L6.84935325,47.8421052 Z" id="Path" fill="#000000" fill-rule="nonzero"></path>
        <path d="M36.7607047,28.6558876 C36.7607047,32.4232827 33.6968108,35.4851694 29.9314228,35.4851694 C26.1650312,35.4851694 23.1021409,32.4222792 23.1021409,28.6558876 L23.0790588,28.6348126 L23.0790588,6.882471 L17.5433764,6.882471 L17.5433764,28.6558876 L17.5674621,28.6779661 C17.5795049,35.4851694 23.1222123,41.0188447 29.9324264,41.0188447 C36.750669,41.0188447 42.2953835,35.4741302 42.2953835,28.6558876 L42.2953835,6.86641391 L36.7607047,6.86641391 L36.7607047,28.6558876 L36.7607047,28.6558876 Z" id="Path" fill="#000000" fill-rule="nonzero"></path>
        <path d="M194.45339,28.617752 L194.45339,12.3659679 L198.055196,12.3659679 L198.055196,6.82928188 L194.45339,6.82928188 L194.45339,0 L188.917707,0 L188.917707,6.82928188 L185.286797,6.82928188 L185.286797,12.3649643 L188.917707,12.3649643 L188.917707,28.6147413 C188.917707,35.4329839 194.465432,40.9797056 201.282671,40.9797056 L201.282671,35.4440231 C197.518287,35.4470338 194.45339,32.38314 194.45339,28.617752 Z" id="Path" fill="#000000" fill-rule="nonzero"></path>
    </g>
</svg>